<?xml version="1.0" encoding="utf-8" ?>
<svg xmlns="http://www.w3.org/2000/svg" xmlns:xlink="http://www.w3.org/1999/xlink" width="1024" height="1024">
	<path fill="#00181B" transform="scale(2 2)" d="M104.649 214.294C103.13 211.182 101.319 208.22 99.835 205.086C84.7181 173.166 81.0496 133.919 91.8211 100.202C95.334 89.2062 97.7814 82.6189 110.397 80.3031C130.809 77.6144 177.718 116.302 189.884 130.194C216.008 119.83 261.797 119.223 289.341 123.176C300.617 124.795 311.343 127.755 322.423 130.194C337.004 113.326 353.128 100.463 372.853 90.0566C383.46 84.461 398.333 76.0442 410.041 83.0121C418.215 87.8773 420.034 98.2964 422.189 106.908C430.636 140.668 426.168 184.227 408.166 214.294C410.257 222.101 411.411 230.748 411.07 238.851C416.36 243.179 420.671 249.342 424.465 254.986C434.295 251.798 444.506 250.125 454.836 250.037C456.167 250.025 466.154 249.456 464.544 252.775C462.757 256.464 455.64 254.986 452.433 255.117C443.762 255.472 435.193 256.63 426.949 259.441C431.555 267.161 435.499 274.669 438.523 283.147C443.825 283.442 463.308 286.636 465.878 291.058C466.283 295.899 455.953 291.439 454.151 290.959C449.616 289.754 445.008 288.913 440.368 288.237C443.012 297.558 444.493 306.991 444.072 316.704C445.619 317.448 458.214 325.114 451.336 326.728C449.318 327.202 445.673 323.778 444.072 322.622C439.62 350.708 429.556 366.522 408.919 385.412C406.11 387.658 403.326 389.985 400.395 392.07C328.203 443.43 191.92 444.623 118.014 395.934C87.4834 375.821 74.7968 355.887 67.7406 321.625C65.7015 322.996 62.3136 327.257 59.6954 327.015C51.789 326.287 66.2258 316.828 67.7406 316.006C67.4064 306.527 68.7996 297.345 71.3763 288.237C63.1906 288.939 55.9329 291.431 47.9905 293.121C46.122 293.519 43.0504 292.834 44.3526 290.141C46.2157 286.287 68.289 283.501 73.0267 282.271C76.502 274.619 79.8728 265.971 85.2146 259.441C77.4318 257.741 69.6844 256.192 61.7432 255.439C59.3397 255.212 47.7872 255.057 46.657 254.296C40.4759 244.886 80.2384 252.619 87.7636 254.986C91.9337 248.889 96.7689 242.866 101.788 237.445C101.651 229.529 102.988 222.003 104.649 214.294ZM110.397 90.595C103.755 92.6277 102.872 98.7967 100.977 104.658C91.4596 134.085 94.9291 172.115 108.882 199.987C111.83 193.828 114.81 186.418 119.511 181.416C114.629 162.497 112.112 148.084 112.24 128.634C112.737 124.765 113.273 118.686 116.694 116.211C125.906 109.543 155.815 132.825 163.699 141.453C168.873 138.047 174.651 136.224 179.283 132.995C173.844 128.835 169.032 123.94 163.828 119.504C154.779 111.793 123.209 89.0124 110.397 90.595ZM399.737 90.595C379.08 93.6056 345.879 119.464 332.789 134.321C338.159 136.58 343.565 138.603 348.664 141.453C354.734 134.18 384.052 108.312 394.337 116.493C398.107 119.492 398.032 125.927 399.315 130.194C399.697 147.509 398.115 164.671 393.455 181.416C397.244 187.87 400.516 193.895 403.431 200.812C418.619 169.599 420.324 131.028 408.996 98.2518C407.433 93.7285 404.645 90.7097 399.737 90.595ZM248.709 131.687L247.975 131.97C247.952 135.959 253.438 140.242 246.858 146.816C239.243 154.424 225.856 147.704 231.723 132.51C177.166 135.623 120.729 168.452 112.681 226.297C109.252 250.947 114.359 236.748 98.6742 258.283C108.679 261.251 135.547 272.623 127.681 276.131C125.071 277.295 119.091 272.538 116.899 271.329C110.354 267.718 102.667 264.335 95.4044 262.532C91.6691 268.635 87.6282 274.907 85.2146 281.684C89.9333 281.603 111.409 281.284 114.284 284.425C115.321 285.557 114.548 287.218 113.304 287.866C111.65 288.729 89.1434 286.404 83.0276 286.692C80.5852 294.456 78.4546 301.883 78.5598 310.112C82.3372 308.406 119.525 294.07 113.749 304.57C112.59 306.677 105.384 306.755 103.189 307.224C94.5387 309.071 86.4272 311.979 78.5598 316.006C78.0289 335.686 88.6054 354.797 101.836 368.725C140.697 409.636 207.302 420.636 261.648 420.518C310.381 420.505 374.044 405.343 408.773 370.681C421.655 357.824 434.885 334.849 432.99 316.006C420.499 306.941 409.536 309.125 398.411 304.919C395.875 303.961 396.036 300.586 398.984 300.293C406.306 299.563 425.679 305.555 432.99 310.112C432.745 301.842 431.011 295.292 428.808 287.447C422.226 287.434 415.636 287.361 409.075 287.996C406.978 288.199 393.862 291.963 396.054 285.996C397.502 282.056 423.097 282.259 426.949 282.271C423.709 275.495 420.558 268.873 416.501 262.532C409.372 264.967 402.628 268.106 395.873 271.426C393.274 272.704 388.027 277.164 384.947 275.344C378.135 271.32 405.779 261.012 413.65 258.283C405.168 244.966 401.843 249.558 400.173 231.246C394.736 171.591 335.904 135.879 280.527 132.995C291.818 153.105 253.036 157.608 264.422 131.687C259.219 131.68 253.901 131.465 248.709 131.687Z"/>
	<path fill="#00181B" transform="scale(2 2)" d="M172.386 176.535C167.966 178.739 157.534 189.979 156.998 183.385C156.409 176.142 181.402 166.984 188.942 166.775C194.109 166 205.845 167.304 208.939 170.929C209.976 172.145 209.349 174.192 207.956 174.865C206.089 175.766 191.274 166.99 172.386 176.535Z"/>
	<path fill="#00181B" transform="scale(2 2)" d="M342.989 179.204C329.202 168.88 319.816 171.209 305.609 174.983C300.947 176.222 298.132 167.427 317.584 166.775C334.698 164.538 362.97 183.211 351.977 186.423C350.308 186.326 344.841 180.586 342.989 179.204Z"/>
	<path fill="#00181B" transform="scale(2 2)" d="M169.148 247.26C157.578 224.633 170.298 198.089 195.992 199.28C209.901 197.245 223.47 209.539 226.862 222.259C229.396 231.759 227.491 240.953 222.618 249.28C224.736 251.039 233.484 255.964 227.73 258.81C225.815 258.904 224.365 256.993 222.98 255.901C216.668 250.927 210.169 247.393 202.608 244.581C192.495 242.973 182.865 243.524 174.407 249.85C172.424 251.333 170.758 253.841 168.528 254.829C162.371 255.311 167.42 248.999 169.148 247.26ZM192.963 204.337C173.249 207.19 163.637 227.015 173.469 244.581C175.988 242.641 178.275 241.609 181.264 240.581C171.99 224.441 184.305 208.41 201.237 212.888C215.148 216.697 218.423 230.885 211.883 242.589C214.101 243.902 216.317 245.138 218.624 246.292C229.759 226.394 217.347 201.967 192.963 204.337Z"/>
	<path fill="#00181B" transform="scale(2 2)" d="M290.422 247.976C277.75 227.129 288.098 200.392 313.188 199.28C339.225 195.249 354.367 223.811 342.108 247.26C347.583 250.602 348.24 257.737 338.803 250.77C330.042 244.301 321.151 242.998 310.556 244.581C303.664 245.876 296.885 248.88 291.569 253.51C290.454 254.481 286.592 259.48 285.259 259.442C278.127 259.243 289.319 248.943 290.422 247.976ZM313.188 204.337C292.95 205.68 283.6 229.082 294.771 245.406C296.697 244.549 298.893 243.783 300.628 242.589L300.513 242.205C299.81 239.892 298.636 237.827 297.818 235.571C293.355 223.263 304.419 211.55 316.562 212.083C331.69 213.381 338.747 227.645 330.884 240.581C333.582 241.526 335.865 242.49 338.276 244.019C344.547 229.21 341.856 212.693 325.901 205.979C322.573 204.578 316.737 203.042 313.188 204.337Z"/>
	<path fill="#00181B" transform="scale(2 2)" d="M260.768 302.687C242.633 305.529 208.61 289.173 225.038 271.493C231.827 264.186 242.899 262.042 252.427 261.625C266.64 261.074 303.143 267.65 287.659 288.843C281.66 297.053 270.465 301.221 260.768 302.687ZM248.709 268.82C235.319 271.19 231.355 281.655 248.709 281.269C264.775 279.846 262.882 267.325 248.709 268.82Z"/>
	<path fill="#00181B" transform="scale(2 2)" d="M358.649 296.529C351.142 292.366 359.475 288.383 364.022 287.447C371.507 286.441 378.708 290.524 381.872 297.438C387.063 308.78 377.84 312.362 376.684 306.442C375.231 294.389 368.575 292.785 358.649 296.529Z"/>
	<path fill="#00181B" transform="scale(2 2)" d="M135.423 301.263C134.988 302.792 135.463 312.894 131.42 310.344C124.895 306.23 131.42 290.656 143.35 288.237C146.712 288.009 157.921 288.957 155.838 294.14C154.137 298.374 141.406 287.919 135.423 301.263Z"/>
	<path fill="#00181B" transform="scale(2 2)" d="M255.864 321.625C258.984 321.946 261.652 323.255 264.598 324.223C290.555 332.742 335.005 318.955 356.942 305.901C360.304 303.9 363.16 301.929 367.057 301.263C374.995 301.178 368.106 313.697 366.711 316.893C328.909 403.463 218.76 417.852 160.949 344.741C154.339 336.039 143.442 317.532 141.72 306.862C139.658 294.077 154.875 306.451 158.583 308.504C180.92 320.869 214.829 329.709 239.597 326.083C245.797 325.176 250.764 322.394 255.864 321.625ZM275.391 356.599C271.245 356.933 267.269 357.978 263.622 360.026C250.45 367.424 260.929 366.181 247.01 359.106C232.843 351.905 212.342 360.921 207.858 376.212C215.711 379.596 223.352 382.226 231.723 383.997C253.662 387.923 276.989 387.356 297.859 378.99C300.237 378.037 302.559 376.9 305.031 376.212C300.522 364.684 288.021 355.708 275.391 356.599Z"/>
</svg>
